Coordinates
version=1
nRows=32
nColumns=12
inDegrees=yes

Units are S.I. units (second, meters, Newtons, ...)
Angles are in degrees

endheader
time	SC_y	SC_z	SC_x	AC_y	AC_z	AC_x	GH_y	GH_z	GH_yy	EL_x	PS_y
       0.0              -34.97          12.83          20.49          39.31          5.789          15.57         -103.5          15.62         -159.9          111.2          44.82
   0.01079              -34.97          12.83          20.49          39.31          5.788          15.57         -103.5          15.62         -159.9          111.2          44.83
   0.02158              -34.97          12.83          20.49          39.31          5.787          15.56         -103.4          15.61         -159.9          111.2          44.84
   0.03238              -34.97          12.84           20.5          39.31          5.786          15.56         -103.4          15.61         -159.9          111.2          44.85
   0.04317              -34.97          12.84           20.5          39.31          5.785          15.55         -103.4           15.6         -159.9          111.2          44.86
   0.05396              -34.97          12.85           20.5          39.31          5.784          15.54         -103.3           15.6         -159.9          111.2          44.87
   0.06475              -34.96          12.85          20.51          39.31          5.783          15.54         -103.3          15.59         -159.9          111.1          44.88
   0.07555              -34.96          12.86          20.51          39.32          5.782          15.53         -103.2          15.58         -159.9          111.1          44.89
   0.08634              -34.96          12.86          20.51          39.32           5.78          15.52         -103.1          15.58         -159.8          111.1          44.91
   0.09713              -34.96          12.87          20.52          39.32          5.779          15.51         -103.1          15.57         -159.8          111.1          44.92
    0.1079              -34.96          12.88          20.52          39.32          5.777           15.5         -103.0          15.56         -159.8          111.0          44.94
    0.1187              -34.96          12.88          20.53          39.32          5.775          15.49         -103.0          15.55         -159.8          111.0          44.96
    0.1295              -34.96          12.89          20.53          39.33          5.773          15.48         -102.9          15.54         -159.8          111.0          44.98
    0.1403              -34.96           12.9          20.54          39.33          5.771          15.47         -102.8          15.53         -159.8          111.0           45.0
    0.1511              -34.95          12.91          20.54          39.33          5.769          15.46         -102.7          15.52         -159.8          110.9          45.02
    0.1619              -34.95          12.92          20.55          39.34          5.767          15.44         -102.6          15.51         -159.7          110.9          45.04
    0.1727              -34.95          12.93          20.56          39.34          5.764          15.43         -102.5           15.5         -159.7          110.9          45.07
    0.1835              -34.95          12.94          20.56          39.34          5.761          15.41         -102.4          15.48         -159.7          110.8           45.1
    0.1943              -34.95          12.95          20.57          39.35          5.758           15.4         -102.3          15.47         -159.7          110.8          45.13
    0.2051              -34.94          12.96          20.58          39.35          5.754          15.38         -102.1          15.45         -159.6          110.7          45.16
    0.2158              -34.94          12.98          20.59          39.36          5.751          15.36         -102.0          15.43         -159.6          110.7           45.2
    0.2266              -34.94          12.99           20.6          39.36          5.747          15.33         -101.8          15.41         -159.6          110.6          45.24
    0.2374              -34.93          13.01          20.62          39.37          5.742          15.31         -101.6          15.39         -159.5          110.5          45.28
    0.2482              -34.93          13.03          20.63          39.37          5.737          15.28         -101.4          15.36         -159.5          110.4          45.33
     0.259              -34.92          13.05          20.65          39.38          5.731          15.25         -101.2          15.33         -159.5          110.4          45.39
    0.2698              -34.92          13.08          20.66          39.39          5.725          15.21         -100.9           15.3         -159.4          110.3          45.45
    0.2806              -34.91          13.11          20.68           39.4          5.718          15.17         -100.7          15.27         -159.4          110.2          45.52
    0.2914              -34.91          13.14           20.7          39.41           5.71          15.13         -100.3          15.23         -159.3          110.0           45.6
    0.3022               -34.9          13.17          20.73          39.42          5.701          15.08         -99.98          15.18         -159.2          109.9          45.68
     0.313              -34.89          13.21          20.75          39.43          5.691          15.02         -99.57          15.13         -159.2          109.8          45.78
    0.3238              -34.88          13.26          20.79          39.45          5.679          14.95          -99.1          15.08         -159.1          109.6           45.9
    0.3346              -34.87          13.31          20.82          39.46          5.666          14.88         -98.57          15.01         -159.0          109.4          46.03
